<svg width="17" height="16" viewBox="0 0 17 16" fill="none" xmlns="http://www.w3.org/2000/svg">
<path fill-rule="evenodd" clip-rule="evenodd" d="M5.50002 4C5.50002 3.20435 5.81609 2.44129 6.3787 1.87868C6.94131 1.31607 7.70437 1 8.50002 1C9.29567 1 10.0587 1.31607 10.6213 1.87868C11.184 2.44129 11.5 3.20435 11.5 4C11.5 4.79565 11.184 5.55871 10.6213 6.12132C10.0587 6.68393 9.29567 7 8.50002 7C7.70437 7 6.94131 6.68393 6.3787 6.12132C5.81609 5.55871 5.50002 4.79565 5.50002 4ZM3.00069 13.4033C3.02317 11.9596 3.61245 10.5827 4.64133 9.56972C5.67021 8.55674 7.05616 7.98897 8.50002 7.98897C9.94388 7.98897 11.3298 8.55674 12.3587 9.56972C13.3876 10.5827 13.9769 11.9596 13.9994 13.4033C14.0011 13.5005 13.9745 13.5961 13.9227 13.6784C13.871 13.7607 13.7964 13.8261 13.708 13.8667C12.0741 14.6158 10.2975 15.0024 8.50002 15C6.64269 15 4.87802 14.5947 3.29202 13.8667C3.20368 13.8261 3.12907 13.7607 3.07733 13.6784C3.02559 13.5961 2.99896 13.5005 3.00069 13.4033Z"/>
</svg>
